# xmcd
#
# Track frame offsets:
#	150
#	19940
#	35641
#	51860
#	69139
#	80606
#	96302
#	110817
#	127504
#	145096
#	159999
#	173963
#	190171
#	202472
#	215161
#	227694
#	238195
#	251243
#
# Disc length: 3604 seconds
#
# Revision: 1
# Processed by: cddbd v1.5.2PL0 Copyright (c) Steve Scherf et al.
# Submitted via: audiograbber 1.83.01
#
DISCID=0a0e1212
DTITLE=Various Artist - STC VOL 7
DYEAR=1900
DGENRE=COUNTRY
TTITLE0=John Michael Montgomery - I Swear
TTITLE1=George Strait - I Cross My Heart
TTITLE2=Anne Murray - You Needed Me
TTITLE3=The Wilkinsons - 25 Cents
TTITLE4=Steve Earle - Guitar Town
TTITLE5=Willie Nelson - Always On My Mind
TTITLE6=Chely Wright - Single White Female
TTITLE7=K. D. Lang - Constant Craving
TTITLE8=Reba McEntire - Brooks and Dunn - If You See Him If You See Her
TTITLE9=Nitty Gritty Dirt Band - Fishin' In The Dark
TTITLE10=Terri Clark - Emotional Girl
TTITLE11=Martina McBride - Wild Angels
TTITLE12=Dolly Parton - 9 to 5
TTITLE13=Dwight Yoakam - Streets Of Bakersfield
TTITLE14=Don Williams - You're My Best Friend
TTITLE15=Ricky Van Shelton - From A Jack To A King
TTITLE16=Conway Twitty - Slow Hand
TTITLE17=Alabama - You've Got The Touch
EXTD=
EXTT0=
EXTT1=
EXTT2=
EXTT3=
EXTT4=
EXTT5=
EXTT6=
EXTT7=
EXTT8=
EXTT9=
EXTT10=
EXTT11=
EXTT12=
EXTT13=
EXTT14=
EXTT15=
EXTT16=
EXTT17=
PLAYORDER=
